<svg id="Capa_1" data-name="Capa 1" xmlns="http://www.w3.org/2000/svg" viewBox="0 0 71.69 47.77"><defs><style>.cls-1{fill:#fff;}</style></defs><title>logoSeries</title><path class="cls-1" d="M89.69,43.27a23.51,23.51,0,0,1-14.4,14.56,13.69,13.69,0,0,1-7.28.94c-6-.94-3.82-6.54-1.41-9.63,5.49-6.86,15.13-6.76,21.15-6.91,1.41-8.38-4-12.31-10.63-12.83-2.77-.27-5.29.1-7.91-.47-4.5-1-2.35-5.66-.62-8A27.4,27.4,0,0,1,80,11.85c2.51-1.2,6.13-1.25,5.87,2.31-.42,5-5,10.58-8.17,13.61,7.12.53,13.51,5.87,12.25,14.3,2,.16,2.83.21,3.61.31,2.73.53,1.57.89-.1.89Zm-23.3,9.11c-2.1,4.46,1.83,6.55,8,3.83,4.82-2.15,10.37-6.39,13-12.78C82.1,43.54,70.1,44.48,66.39,52.38Zm16.49-35c1.83-3.87,1.83-6.12-2.83-4a27.38,27.38,0,0,0-8,6.08c-1.15,1.25-6.28,6.91-3,8.06,2.41.63,4.92.31,7.33.31A67.44,67.44,0,0,0,82.88,17.35Z" transform="translate(-64.15 -11.12)"/><path class="cls-1" d="M95.71,50.92A2.35,2.35,0,0,1,92.31,49c-.47-2.93,1.15-7.17,3.51-9.42.78-.68,1.72-1.42,2.67-1.26,1.62.26,2,2.41,1.3,3.56-.78,1.31-3.35,3-5,3.67a6.33,6.33,0,0,0-.16,3.51c.31.78,1.15.36,2-.27A35,35,0,0,0,102.05,43c.83-1.1,1.46-.57.68.47C101.05,45.94,98,49.66,95.71,50.92ZM98.07,40c-1.1.57-2.25,2.46-2.94,4.45.89-.74,2.15-1.68,3-2.46S99.69,39.19,98.07,40Z" transform="translate(-64.15 -11.12)"/><path class="cls-1" d="M107.81,42.65c-.42-1.79-4.4,3.14-5.24,5.44a9.43,9.43,0,0,0-.52,3c0,.31-.63.31-1,0-1.26-.63-.73-2.46-.42-3.61q1.26-4.49,2.67-8.49c.16-.68,2.67-1.1,2.1.37a25.84,25.84,0,0,0-1.89,5c2.78-3.35,4.35-3.82,5.29-3.56s1,1.1,1,1.88c0,1.1,0,2.83,1.31,1.94a10,10,0,0,0,1.68-1.62c.42-.53.94-.27.63.31-.68,1.15-3.56,4-4.87,2.25A8.71,8.71,0,0,1,107.81,42.65Z" transform="translate(-64.15 -11.12)"/><path class="cls-1" d="M115,41.6c-.31.89-2.3,6.81-.47,6.75,1.1-.05,3.77-4.29,4.45-5.29.68-1.2,1.68-.94,1,.16-1,1.57-3.51,5.34-5.13,6.23a2.43,2.43,0,0,1-1.84.37c-1.2-.26-1.25-2.15-1.2-3a18.91,18.91,0,0,1,1.25-5.39C113.72,40,115.5,40.39,115,41.6Zm.79-2.73c0,1.16-1.94.79-1.73,0C114.35,37.88,115.87,37.93,115.82,38.87Z" transform="translate(-64.15 -11.12)"/><path class="cls-1" d="M121.21,50.92a2.35,2.35,0,0,1-3.4-1.89c-.47-2.93,1.15-7.17,3.51-9.42.78-.68,1.72-1.42,2.67-1.26,1.62.26,2,2.41,1.31,3.56-.79,1.31-3.36,3-5,3.67a6.33,6.33,0,0,0-.16,3.51c.32.78,1.15.36,2-.27A35,35,0,0,0,127.55,43c.83-1.1,1.46-.57.68.47C126.55,45.94,123.51,49.66,121.21,50.92ZM123.57,40c-1.1.57-2.25,2.46-2.94,4.45.89-.74,2.15-1.68,3-2.46S125.19,39.19,123.57,40Z" transform="translate(-64.15 -11.12)"/><path class="cls-1" d="M132.21,46.31c2.09,4.19-1.94,10.47-7.12,11.31-2.31.37-4.56-1.2-2-5.34,1.57-2.57,3.72-4.19,6.76-5.81-1.15-1.57-2.88-2.31-3.51-4.14-.31-1.2.16-2.36,1.41-3.61,2-1.89,5.19-2,5.61-.26.31,1.31-.37,2.2-.74,1.72-1.1-1.31-3.82-2-4.6-.41-1,2.09,3.19,4.24,3.87,5.65A12.72,12.72,0,0,0,135,43.06c.79-1,1.05-.05.74.58C135.3,44.48,132.84,46.05,132.21,46.31Zm-8.28,6.39c-2.3,3.82.58,4.5,3,3,2.67-1.51,4.45-5.76,3.3-8.11A15.14,15.14,0,0,0,123.93,52.7Z" transform="translate(-64.15 -11.12)"/></svg>